<svg width="128" height="128" viewBox="0 0 128 128" fill="none" xmlns="http://www.w3.org/2000/svg">
    <rect width="128" height="128" rx="64" fill="#1B1B1B"/>
    <path d="M64 108C88.3005 108 108 88.3005 108 64C108 39.6995 88.3005 20 64 20C39.6995 20 20 39.6995 20 64C20 88.3005 39.6995 108 64 108Z" fill="#1B1B1B"/>
    <path d="M64 98C82.7777 98 98 82.7777 98 64C98 45.2223 82.7777 30 64 30C45.2223 30 30 45.2223 30 64C30 82.7777 45.2223 98 64 98Z" fill="white"/>
    <path d="M64 88C77.2548 88 88 77.2548 88 64C88 50.7452 77.2548 40 64 40C50.7452 40 40 50.7452 40 64C40 77.2548 50.7452 88 64 88Z" fill="#1B1B1B"/>
    <path d="M64 64L82 46L64 28L46 46L64 64Z" fill="white"/>
    <path d="M64 64L82 82L64 100L46 82L64 64Z" fill="white"/>
</svg> 